<?xml version="1.0" encoding="UTF-8" standalone="no"?>
<!-- Created with Inkscape (http://www.inkscape.org/) -->

<svg
   width="62.088894mm"
   height="43.744446mm"
   viewBox="0 0 62.088894 43.744446"
   version="1.1"
   id="svg5"
   inkscape:version="1.1 (c4e8f9e, 2021-05-24)"
   sodipodi:docname="icon.svg"
   xmlns:inkscape="http://www.inkscape.org/namespaces/inkscape"
   xmlns:sodipodi="http://sodipodi.sourceforge.net/DTD/sodipodi-0.dtd"
   xmlns="http://www.w3.org/2000/svg"
   xmlns:svg="http://www.w3.org/2000/svg">
  <sodipodi:namedview
     id="namedview7"
     pagecolor="#505050"
     bordercolor="#ffffff"
     borderopacity="1"
     inkscape:pageshadow="0"
     inkscape:pageopacity="0"
     inkscape:pagecheckerboard="1"
     inkscape:document-units="mm"
     showgrid="false"
     inkscape:zoom="1.0753236"
     inkscape:cx="119.49891"
     inkscape:cy="22.318863"
     inkscape:window-width="1680"
     inkscape:window-height="1050"
     inkscape:window-x="0"
     inkscape:window-y="0"
     inkscape:window-maximized="0"
     inkscape:current-layer="g12" />
  <defs
     id="defs2" />
  <g
     inkscape:label="Layer 1"
     inkscape:groupmode="layer"
     id="layer1"
     transform="translate(-63.222486,-120.90865)">
    <g
       id="g12"
       transform="matrix(0.03527778,0,0,-0.03527778,43.106948,145.3264)">
      <path
         d="m 2293.4242,498.52676 c -20.24,76.22 -79.88,136.24 -155.6,156.61 -137.25,37.02 -687.62,37.02 -687.62,37.02 0,0 -550.36701,0 -687.62101,-37.02 -75.723,-20.37 -135.3634,-80.39 -155.6017,-156.61 -36.7773,-138.143 -36.7773,-426.369998 -36.7773,-426.369998 0,0 0,-288.223002 36.7773,-426.371002 20.2383,-76.219 79.8787,-136.2384 155.6017,-156.6173 137.254,-37.0117 687.62101,-37.0117 687.62101,-37.0117 0,0 550.37,0 687.62,37.0117 75.72,20.3789 135.36,80.3983 155.6,156.6173 36.78,138.148 36.78,426.371002 36.78,426.371002 0,0 0,288.226998 -36.78,426.369998"
         style="fill:#ee2722;fill-opacity:1;fill-rule:nonzero;stroke:none"
         id="path14" />
      <g
         id="g413"
         transform="matrix(0.5591278,-0.5591278,0.5591278,0.5591278,602.25021,877.07239)"
         style="fill:#ffffff;fill-opacity:1">
        <rect
           style="fill:#ffffff;fill-opacity:1;fill-rule:evenodd;stroke-width:7.5"
           id="rect307"
           width="259.93878"
           height="986.2384"
           x="1348.1093"
           y="-531.6062"
           transform="scale(1,-1)" />
        <rect
           style="fill:#ffffff;fill-opacity:1;fill-rule:evenodd;stroke-width:7.5"
           id="rect307-3"
           width="259.93878"
           height="986.2384"
           x="-91.482391"
           y="984.95941"
           transform="matrix(0,1,1,0,0,0)" />
      </g>
    </g>
  </g>
</svg>
