<?xml version="1.0" encoding="UTF-8" standalone="no" ?>
<!DOCTYPE svg PUBLIC "-//W3C//DTD SVG 1.1//EN" "http://www.w3.org/Graphics/SVG/1.1/DTD/svg11.dtd">
<svg xmlns="http://www.w3.org/2000/svg" xmlns:xlink="http://www.w3.org/1999/xlink" version="1.1" width="1080" height="1080" viewBox="0 0 1080 1080" xml:space="preserve">
<desc>Created with Fabric.js 4.2.0</desc>
<defs>
</defs>
<g transform="matrix(1 0 0 1 540 540)" id="bd1867da-0e50-49e4-bb91-4c1a25feeae2"  >
<rect style="stroke: none; stroke-width: 1; stroke-dasharray: none; stroke-linecap: butt; stroke-dashoffset: 0; stroke-linejoin: miter; stroke-miterlimit: 4; fill: rgb(255,255,255); fill-rule: nonzero; opacity: 1;" vector-effect="non-scaling-stroke"  x="-540" y="-540" rx="0" ry="0" width="1080" height="1080" />
</g>
<g transform="matrix(Infinity NaN NaN Infinity 0 0)" id="1e1b32c4-8415-4644-b581-cd30916e1e24"  >
</g>
<g transform="matrix(4.55 0 0 4.55 540 540)"  >
<g style="" vector-effect="non-scaling-stroke"   >
		<g transform="matrix(0.13 0 0 -0.13 0 0)" id="path14"  >
<path style="stroke: none; stroke-width: 1; stroke-dasharray: none; stroke-linecap: butt; stroke-dashoffset: 0; stroke-linejoin: miter; stroke-miterlimit: 4; fill: rgb(238,39,34); fill-rule: nonzero; opacity: 1;" vector-effect="non-scaling-stroke"  transform=" translate(-1450.2, -72.16)" d="M 2293.4242 498.52676 C 2273.1842 574.74676 2213.5442 634.76676 2137.8242 655.1367600000001 C 2000.5742 692.1567600000001 1450.2042000000001 692.1567600000001 1450.2042000000001 692.1567600000001 C 1450.2042000000001 692.1567600000001 899.8371900000001 692.1567600000001 762.5831900000002 655.1367600000001 C 686.8601900000002 634.7667600000001 627.2197900000001 574.7467600000001 606.9814900000001 498.5267600000001 C 570.2041900000002 360.38376000000005 570.2041900000002 72.15676200000007 570.2041900000002 72.15676200000007 C 570.2041900000002 72.15676200000007 570.2041900000002 -216.06623999999994 606.9814900000001 -354.2142399999999 C 627.2197900000001 -430.4332399999999 686.8601900000001 -490.4526399999999 762.5831900000001 -510.8315399999999 C 899.8371900000001 -547.8432399999999 1450.2042000000001 -547.8432399999999 1450.2042000000001 -547.8432399999999 C 1450.2042000000001 -547.8432399999999 2000.5742 -547.8432399999999 2137.8242 -510.8315399999999 C 2213.5442 -490.4526399999999 2273.1842 -430.4332399999999 2293.4242 -354.2142399999999 C 2330.2042 -216.0662399999999 2330.2042 72.15676200000007 2330.2042 72.15676200000007 C 2330.2042 72.15676200000007 2330.2042 360.38376000000005 2293.4242 498.5267600000001" stroke-linecap="round" />
</g>
		<g transform="matrix(0.07 0.07 -0.07 0.07 0 0)" id="rect307"  >
<rect style="stroke: none; stroke-width: 7.5; stroke-dasharray: none; stroke-linecap: butt; stroke-dashoffset: 0; stroke-linejoin: miter; stroke-miterlimit: 4; fill: rgb(255,255,255); fill-rule: evenodd; opacity: 1;" vector-effect="non-scaling-stroke"  x="-129.96939" y="-493.1192" rx="0" ry="0" width="259.93878" height="986.2384" />
</g>
		<g transform="matrix(0.07 -0.07 0.07 0.07 0 0)" id="rect307-3"  >
<rect style="stroke: none; stroke-width: 7.5; stroke-dasharray: none; stroke-linecap: butt; stroke-dashoffset: 0; stroke-linejoin: miter; stroke-miterlimit: 4; fill: rgb(255,255,255); fill-rule: evenodd; opacity: 1;" vector-effect="non-scaling-stroke"  x="-129.96939" y="-493.1192" rx="0" ry="0" width="259.93878" height="986.2384" />
</g>
</g>
</g>
</svg>